:FULLY-SPECIFIED
:FORCE-ALL-JOINTS-BE-3DOF
:DEGREES
243
root 9.23051 16.2604 -2.39146 9.917 -4.85246 -3.25844
lfemur -46.032 9.56301 -22.1311
ltibia 42.6066 0 0
lfoot -5.8707 4.86917 0
ltoes -1.67998 0 0
rfemur 16.9832 3.19625 22.9071
rtibia 16.1841 0 0
rfoot 7.61717 3.94825 0
rtoes -17.6281 0 0
lowerback -6.89805 1.98565 0.311179
upperback -2.60989 2.57987 2.21308
thorax 1.0822 1.29859 2.29897
lowerneck -18.9529 -6.10424 -14.0707
upperneck 17.1329 -7.69887 15.0193
head 9.7243 -2.96868 6.55199
lclavicle 1.02261e-14 1.16473e-14 0
lhumerus -46.9142 -5.08649 88.886
lradius 19.7491 0 0
lwrist -6.07005 0 0
lhand -7.49135 -23.3541 0
lfingers 7.12502 0 0
lthumb 18.3982 5.79577 0
rclavicle 1.02261e-14 1.16473e-14 0
rhumerus -46.017 8.96268 -87.4406
rradius 43.2255 0 0
rwrist -23.5569 0 0
rhand -30.882 -22.0578 0
rfingers 7.12502 0 0
rthumb -4.16918 -51.9945 0
244
root 9.29295 16.3096 -2.14137 9.80448 -5.31924 -2.54216
lfemur -44.655 9.54647 -23.012
ltibia 42.3326 0 0
lfoot -6.92971 5.06341 0
ltoes -1.08269 0 0
rfemur 13.8482 2.35102 21.431
rtibia 22.9325 0 0
rfoot 8.68777 4.05837 0
rtoes -16.9235 0 0
lowerback -6.63397 1.99641 -0.185622
upperback -2.76537 2.63571 1.99451
thorax 0.761645 1.33082 2.34124
lowerneck -18.8858 -5.99388 -13.9982
upperneck 17.3265 -7.54776 14.8158
head 9.74071 -2.91621 6.49411
lclavicle -1.24902e-15 4.4975e-15 0
lhumerus -46.2012 -5.03176 88.6192
lradius 19.8473 0 0
lwrist -6.49589 0 0
lhand -7.49024 -23.0297 0
lfingers 7.12502 0 0
lthumb 18.3993 6.11993 0
rclavicle -1.24902e-15 4.4975e-15 0
rhumerus -46.3181 8.66402 -87.1816
rradius 42.0042 0 0
rwrist -22.8952 0 0
rhand -30.3693 -22.3224 0
rfingers 7.12502 0 0
rthumb -3.67407 -52.2672 0
245
root 9.34322 16.3498 -1.94264 9.72432 -5.71709 -1.95766
lfemur -43.536 9.52809 -23.7199
ltibia 42.0705 0 0
lfoot -7.78881 5.25607 0
ltoes -0.640413 0 0
rfemur 11.1659 1.6402 20.2023
rtibia 28.655 0 0
rfoot 9.4705 4.25969 0
rtoes -16.2255 0 0
lowerback -6.43153 2.01416 -0.585802
upperback -2.91046 2.69193 1.81402
thorax 0.488504 1.36283 2.37169
lowerneck -18.7709 -5.89489 -13.9384
upperneck 17.4743 -7.41667 14.6416
head 9.7377 -2.87298 6.44481
lclavicle -1.18026e-14 -1.97312e-15 0
lhumerus -45.6624 -4.97455 88.402
lradius 19.9492 0 0
lwrist -6.84928 0 0
lhand -7.47159 -22.7464 0
lfingers 7.12502 0 0
lthumb 18.4172 6.4015 0
rclavicle -1.18026e-14 -1.97312e-15 0
rhumerus -46.5808 8.41908 -86.9516
rradius 40.9969 0 0
rwrist -22.2977 0 0
rhand -29.8363 -22.6348 0
rfingers 7.12502 0 0
rthumb -3.15934 -52.588 0
246
root 9.36841 16.37 -1.84555 9.70184 -5.93311 -1.65892
lfemur -43.0005 9.52524 -24.0794
ltibia 41.9496 0 0
lfoot -8.24158 5.36662 0
ltoes -0.46453 0 0
rfemur 9.69737 1.25091 19.5377
rtibia 31.7946 0 0
rfoot 9.8128 4.53899 0
rtoes -15.6655 0 0
lowerback -6.33415 2.03468 -0.784286
upperback -3.02021 2.73562 1.71653
thorax 0.315578 1.38726 2.379
lowerneck -18.6273 -5.83741 -13.9154
upperneck 17.5374 -7.34624 14.5477
head 9.71539 -2.85356 6.41946
lclavicle -1.8764e-14 -5.93685e-15 0
lhumerus -45.4605 -4.89244 88.262
lradius 20.003 0 0
lwrist -7.12105 0 0
lhand -7.4304 -22.5708 0
lfingers 7.12502 0 0
lthumb 18.4568 6.57333 0
rclavicle -1.8764e-14 -5.93685e-15 0
rhumerus -46.7595 8.26614 -86.8059
rradius 40.4378 0 0
rwrist -21.923 0 0
rhand -29.3936 -22.7757 0
rfingers 7.12502 0 0
rthumb -2.73182 -52.7363 0
247
root 9.3556 16.3586 -1.90036 9.76238 -5.85443 -1.79992
lfemur -43.374 9.55533 -23.9149
ltibia 42.0992 0 0
lfoot -8.08158 5.31458 0
ltoes -0.666402 0 0
rfemur 10.2037 1.37025 19.7541
rtibia 30.7944 0 0
rfoot 9.56213 4.88299 0
rtoes -15.3751 0 0
lowerback -6.38529 2.05378 -0.675997
upperback -3.06967 2.75391 1.74692
thorax 0.295667 1.39674 2.35183
lowerneck -18.4737 -5.85161 -13.953
upperneck 17.477 -7.37709 14.5853
head 9.67392 -2.87252 6.43342
lclavicle -1.94623e-14 -5.56597e-15 0
lhumerus -45.758 -4.76304 88.2269
lradius 19.9566 0 0
lwrist -7.30207 0 0
lhand -7.36173 -22.5698 0
lfingers 7.12502 0 0
lthumb 18.5229 6.56827 0
rclavicle -1.94623e-14 -5.56597e-15 0
rhumerus -46.8088 8.24347 -86.8
rradius 40.5611 0 0
rwrist -21.9297 0 0
rhand -29.1518 -22.5261 0
rfingers 7.12502 0 0
rthumb -2.49833 -52.4912 0
248
root 9.3995 16.3984 -1.718 9.59777 -6.16614 -1.31221
lfemur -42.1182 9.46396 -24.4744
ltibia 41.5521 0 0
lfoot -8.67363 5.54803 0
ltoes -0.148238 0 0
rfemur 8.06729 0.877722 18.916
rtibia 34.9798 0 0
rfoot 10.1399 4.07245 0
rtoes -15.7844 0 0
lowerback -6.23343 2.0126 -1.02872
upperback -2.98731 2.72173 1.63269
thorax 0.287615 1.38097 2.4258
lowerneck -18.7665 -5.77299 -13.8352
upperneck 17.6524 -7.24688 14.4328
head 9.75679 -2.80843 6.38202
lclavicle -2.15564e-14 -8.77598e-15 0
lhumerus -44.8828 -5.09964 88.2886
lradius 20.1542 0 0
lwrist -6.86311 0 0
lhand -7.52598 -22.4909 0
lfingers 7.12502 0 0
lthumb 18.3648 6.6616 0
rclavicle -2.15564e-14 -8.77598e-15 0
rhumerus -46.7491 8.27068 -86.7364
rradius 40.0487 0 0
rwrist -21.7172 0 0
rhand -29.5162 -23.3717 0
rfingers 7.12502 0 0
rthumb -2.85019 -53.3296 0
249
root 9.45233 16.4492 -1.49515 9.36182 -6.53311 -0.738271
lfemur -40.4629 9.31801 -25.1132
ltibia 40.7112 0 0
lfoot -9.31409 5.87928 0
ltoes 0.485818 0 0
rfemur 5.48365 0.329727 18.0095
rtibia 39.8047 0 0
rfoot 10.6768 2.66758 0
rtoes -16.6358 0 0
lowerback -6.07193 1.93898 -1.4471
upperback -2.80224 2.64712 1.5166
thorax 0.379236 1.34283 2.53428
lowerneck -19.2571 -5.6727 -13.6614
upperneck 17.8784 -7.07337 14.2417
head 9.88379 -2.7171 6.31468
lclavicle -2.16245e-14 -1.18976e-14 0
lhumerus -43.6534 -5.68039 88.4798
lradius 20.4633 0 0
lwrist -5.9885 0 0
lhand -7.79986 -22.4618 0
lfingers 7.12502 0 0
lthumb 18.1013 6.71487 0
rclavicle -2.16245e-14 -1.18976e-14 0
rhumerus -46.5556 8.41888 -86.707
rradius 39.607 0 0
rwrist -21.5724 0 0
rhand -30.2565 -24.6802 0
rfingers 7.12502 0 0
rthumb -3.56504 -54.624 0
250
root 9.50415 16.5004 -1.27558 9.10989 -6.89402 -0.175294
lfemur -38.7668 9.1527 -25.727
ltibia 39.7928 0 0
lfoot -9.90501 6.23523 0
ltoes 1.13873 0 0
rfemur 2.94884 -0.18743 17.1589
rtibia 44.4396 0 0
rfoot 11.1719 1.09271 0
rtoes -17.6998 0 0
lowerback -5.92225 1.85681 -1.86158
upperback -2.57449 2.55914 1.41063
thorax 0.521609 1.2974 2.65175
lowerneck -19.8204 -5.57388 -13.4737
upperneck 18.1098 -6.89716 14.0507
head 10.0255 -2.62091 6.24546
lclavicle -2.0316e-14 -1.46107e-14 0
lhumerus -42.3599 -6.34326 88.7307
lradius 20.8002 0 0
lwrist -4.9439 0 0
lhand -8.10727 -22.468 0
lfingers 7.12502 0 0
lthumb 17.8055 6.73567 0
rclavicle -2.0316e-14 -1.46107e-14 0
rhumerus -46.2985 8.62226 -86.7071
rradius 39.2519 0 0
rwrist -21.4836 0 0
rhand -31.1567 -26.1626 0
rfingers 7.12502 0 0
rthumb -4.43433 -56.0894 0
251
root 9.54503 16.5415 -1.10308 8.89736 -7.18757 0.279524
lfemur -37.3884 9.00325 -26.2112
ltibia 39.0134 0 0
lfoot -10.3484 6.54274 0
ltoes 1.71348 0 0
rfemur 0.958882 -0.587441 16.4885
rtibia 48.0546 0 0
rfoot 11.6245 -0.227831 0
rtoes -18.7471 0 0
lowerback -5.80585 1.78999 -2.20261
upperback -2.3641 2.48681 1.32674
thorax 0.66581 1.25978 2.75265
lowerneck -20.3311 -5.49965 -13.3142
upperneck 18.3015 -6.75882 13.8986
head 10.1525 -2.54221 6.18844
lclavicle -1.82801e-14 -1.65948e-14 0
lhumerus -41.2925 -6.92621 88.9711
lradius 21.0808 0 0
lwrist -3.99492 0 0
lhand -8.37211 -22.4955 0
lfingers 7.12502 0 0
lthumb 17.5507 6.73157 0
rclavicle -1.82801e-14 -1.65948e-14 0
rhumerus -46.048 8.81501 -86.7318
rradius 38.9989 0 0
rwrist -21.439 0 0
rhand -32.0009 -27.5298 0
rfingers 7.12502 0 0
rthumb -5.24953 -57.4407 0
252
root 9.56503 16.5618 -1.02141 8.7796 -7.35245 0.52899
lfemur -36.6865 8.90486 -26.4615
ltibia 38.5892 0 0
lfoot -10.5464 6.7287 0
ltoes 2.11302 0 0
rfemur 0.00983701 -0.784003 16.1225
rtibia 49.8202 0 0
rfoot 12.0336 -0.869728 0
rtoes -19.5483 0 0
lowerback -5.74422 1.76241 -2.40062
upperback -2.23109 2.45917 1.27692
thorax 0.762917 1.24506 2.81146
lowerneck -20.6642 -5.47313 -13.2251
upperneck 18.4084 -6.69896 13.8241
head 10.2354 -2.50338 6.15768
lclavicle -1.61661e-14 -1.75299e-14 0
lhumerus -40.7411 -7.26722 89.1311
lradius 21.2213 0 0
lwrist -3.40722 0 0
lhand -8.51829 -22.53 0
lfingers 7.12502 0 0
lthumb 17.41 6.71018 0
rclavicle -1.61661e-14 -1.75299e-14 0
rhumerus -45.8742 8.93132 -86.7762
rradius 38.864 0 0
rwrist -21.4269 0 0
rhand -32.5732 -28.493 0
rfingers 7.12502 0 0
rthumb -5.80213 -58.3931 0
253
root 9.55419 16.551 -1.07435 8.81196 -7.32735 0.475909
lfemur -37.0197 8.89274 -26.3734
ltibia 38.7369 0 0
lfoot -10.4009 6.72 0
ltoes 2.24033 0 0
rfemur 0.597748 -0.690808 16.1854
rtibia 48.9068 0 0
rfoot 12.3986 -0.408656 0
rtoes -19.8742 0 0
lowerback -5.75882 1.79797 -2.38606
upperback -2.23549 2.50525 1.27314
thorax 0.764009 1.26834 2.80263
lowerneck -20.6944 -5.51746 -13.2483
upperneck 18.3854 -6.75815 13.866
head 10.2448 -2.52678 6.16726
lclavicle -1.46231e-14 -1.70955e-14 0
lhumerus -40.9959 -7.20423 89.1407
lradius 21.1377 0 0
lwrist -3.44643 0 0
lhand -8.4697 -22.5571 0
lfingers 7.12502 0 0
lthumb 17.4568 6.67907 0
rclavicle -1.46231e-14 -1.70955e-14 0
rhumerus -45.8473 8.90538 -86.8357
rradius 38.8627 0 0
rwrist -21.4355 0 0
rhand -32.6575 -28.763 0
rfingers 7.12502 0 0
rthumb -5.88357 -58.6613 0
254
root 9.58948 16.5878 -0.903915 8.66664 -7.4325 0.691601
lfemur -35.8263 8.8686 -26.6704
ltibia 38.1171 0 0
lfoot -10.8243 6.82044 0
ltoes 2.05349 0 0
rfemur -1.28347 -0.978573 15.9505
rtibia 51.7718 0 0
rfoot 11.4538 -1.96964 0
rtoes -19.4681 0 0
lowerback -5.70609 1.67978 -2.48765
upperback -2.14106 2.35254 1.27777
thorax 0.83759 1.19049 2.85541
lowerneck -20.7935 -5.39098 -13.1367
upperneck 18.4995 -6.57733 13.7186
head 10.265 -2.4474 6.12491
lclavicle -1.61908e-14 -1.75428e-14 0
lhumerus -40.0453 -7.58807 89.2192
lradius 21.433 0 0
lwrist -2.98805 0 0
lhand -8.70033 -22.5464 0
lfingers 7.12502 0 0
lthumb 17.2348 6.70899 0
rclavicle -1.61908e-14 -1.75428e-14 0
rhumerus -45.8061 9.03997 -86.7
rradius 38.901 0 0
rwrist -21.4509 0 0
rhand -32.7529 -28.5186 0
rfingers 7.12502 0 0
rthumb -5.97571 -58.4157 0
